<svg width="3278" height="2559" viewBox="0 0 3278 2559" fill="none" xmlns="http://www.w3.org/2000/svg">
<rect x="2868" width="410" height="979" fill="#B0B0B0"/>
<rect x="3037" y="118" width="94.7252" height="103.892" fill="#2B0DE0"/>
<path d="M3067.81 197V138.818H3091.85C3096.2 138.818 3099.96 139.67 3103.13 141.375C3106.31 143.061 3108.76 145.419 3110.48 148.449C3112.21 151.46 3113.07 154.964 3113.07 158.96C3113.07 162.975 3112.19 166.489 3110.43 169.5C3108.68 172.492 3106.19 174.812 3102.95 176.46C3099.72 178.108 3095.87 178.932 3091.42 178.932H3076.59V167.852H3088.81C3090.93 167.852 3092.7 167.483 3094.12 166.744C3095.56 166.006 3096.65 164.973 3097.39 163.648C3098.13 162.303 3098.49 160.741 3098.49 158.96C3098.49 157.161 3098.13 155.608 3097.39 154.301C3096.65 152.975 3095.56 151.953 3094.12 151.233C3092.68 150.513 3090.91 150.153 3088.81 150.153H3081.88V197H3067.81Z" fill="white"/>
<path d="M3097 645.5C3097 932.966 2864.19 1166 2577 1166C2289.82 1166 2057 932.966 2057 645.5C2057 358.034 2289.82 125 2577 125C2864.19 125 3097 358.034 3097 645.5Z" fill="#D9D9D9" stroke="#868686" stroke-width="4"/>
<path d="M3048 638.5C3048 891.132 2838.96 1096 2581 1096C2323.05 1096 2114 891.132 2114 638.5C2114 385.868 2323.05 181 2581 181C2838.96 181 3048 385.868 3048 638.5Z" fill="#8A8A8A" stroke="#868686" stroke-width="4"/>
<path d="M2949.74 563.27C2952.94 578.93 2955.11 594.95 2956.2 611.262L2943.73 612.093C2944.24 619.828 2944.5 627.633 2944.5 635.5C2944.5 643.367 2944.24 651.172 2943.73 658.907L2956.2 659.738C2955.11 676.05 2952.94 692.07 2949.74 707.73L2937.49 705.232C2934.35 720.64 2930.19 735.687 2925.07 750.302L2936.87 754.43C2931.51 769.759 2925.14 784.629 2917.83 798.964L2906.7 793.29C2899.6 807.226 2891.59 820.642 2882.74 833.462L2893.03 840.562C2883.84 853.868 2873.79 866.551 2862.95 878.533L2853.68 870.147C2843.22 881.712 2832 892.603 2820.09 902.744L2828.19 912.261C2815.92 922.708 2802.95 932.385 2789.36 941.214L2782.55 930.731C2769.5 939.202 2755.87 946.866 2741.71 953.651L2747.11 964.923C2732.64 971.862 2717.64 977.911 2702.18 982.998L2698.28 971.125C2683.56 975.968 2668.43 979.91 2652.94 982.883L2655.29 995.159C2639.61 998.17 2623.57 1000.22 2607.24 1001.24L2606.46 988.767C2598.71 989.253 2590.89 989.5 2583 989.5C2575.12 989.5 2567.3 989.253 2559.54 988.767L2558.76 1001.24C2542.44 1000.22 2526.4 998.17 2510.71 995.159L2513.07 982.883C2497.58 979.91 2482.44 975.968 2467.73 971.125L2463.82 982.998C2448.37 977.911 2433.37 971.862 2418.89 964.923L2424.29 953.651C2410.14 946.866 2396.5 939.202 2383.46 930.731L2376.65 941.214C2363.06 932.385 2350.09 922.708 2337.82 912.261L2345.92 902.744C2334.01 892.603 2322.78 881.712 2312.32 870.147L2303.05 878.533C2292.21 866.551 2282.16 853.868 2272.98 840.562L2283.27 833.462C2274.42 820.642 2266.41 807.226 2259.31 793.29L2248.17 798.964C2240.87 784.629 2234.5 769.759 2229.13 754.43L2240.93 750.302C2235.82 735.687 2231.65 720.64 2228.51 705.232L2216.26 707.73C2213.07 692.07 2210.89 676.05 2209.81 659.738L2222.28 658.907C2221.76 651.172 2221.5 643.367 2221.5 635.5C2221.5 627.633 2221.76 619.828 2222.28 612.093L2209.81 611.262C2210.89 594.95 2213.07 578.93 2216.26 563.27L2228.51 565.768C2231.65 550.36 2235.82 535.313 2240.93 520.698L2229.13 516.57C2234.5 501.241 2240.87 486.371 2248.17 472.036L2259.31 477.71C2266.41 463.774 2274.42 450.358 2283.27 437.538L2272.98 430.438C2282.16 417.132 2292.21 404.449 2303.05 392.467L2312.32 400.853C2322.78 389.288 2334.01 378.397 2345.92 368.256L2337.82 358.739C2350.09 348.292 2363.06 338.616 2376.65 329.786L2383.46 340.269C2396.5 331.798 2410.14 324.134 2424.29 317.349L2418.89 306.077C2433.37 299.138 2448.37 293.089 2463.82 288.002L2467.73 299.875C2482.44 295.032 2497.58 291.09 2513.07 288.117L2510.71 275.841C2526.4 272.83 2542.44 270.781 2558.76 269.757L2559.54 282.233C2567.3 281.747 2575.12 281.5 2583 281.5C2590.89 281.5 2598.71 281.747 2606.46 282.233L2607.24 269.757C2623.57 270.781 2639.61 272.83 2655.29 275.841L2652.94 288.117C2668.43 291.09 2683.56 295.032 2698.28 299.875L2702.18 288.002C2717.64 293.089 2732.64 299.138 2747.11 306.077L2741.71 317.349C2755.87 324.134 2769.5 331.798 2782.55 340.269L2789.36 329.786C2802.95 338.615 2815.92 348.292 2828.19 358.739L2820.09 368.256C2832 378.397 2843.22 389.288 2853.68 400.853L2862.95 392.467C2873.79 404.449 2883.84 417.132 2893.03 430.438L2882.74 437.538C2891.59 450.358 2899.6 463.774 2906.7 477.71L2917.83 472.036C2925.14 486.371 2931.51 501.241 2936.87 516.57L2925.07 520.698C2930.19 535.313 2934.35 550.36 2937.49 565.768L2949.74 563.27Z" stroke="white" stroke-width="25" stroke-dasharray="50 50"/>
<path d="M2831 635C2831 768.615 2720.46 877 2584 877C2447.55 877 2337 768.615 2337 635C2337 501.385 2447.55 393 2584 393C2720.46 393 2831 501.385 2831 635Z" fill="#5AA02C" stroke="#868686" stroke-width="4"/>
<rect x="2327" width="556" height="226" fill="#D9D9D9"/>
<rect x="2368" width="463" height="364" fill="#8A8A8A"/>
<rect x="2587" y="153" width="25" height="50" fill="white"/>
<rect x="2587" y="68" width="25" height="50" fill="white"/>
<rect x="2373" y="1022" width="374" height="174" fill="#5280B6" stroke="#1B47DF" stroke-width="10" stroke-dasharray="20 20"/>
<path d="M1018.5 2551.5H1115M2505 1209H2514.5M2611.5 1209H2621.5M268.505 1210.5H55.0049V1440.5H64.5049V1460.5H8.00488C10.2444 1514.37 12.8149 1544.46 20.0049 1598M68.5049 1803.5L103.005 1891L141.005 1872C232.615 2048.26 314.005 2143.5 439.505 2245M478.005 2274C508.936 2295.77 527.914 2308.26 564.505 2326M607.505 2348C642.227 2366.14 663.19 2374.37 701.005 2386.5M752.005 2403.5C855.196 2432.65 914.878 2444.29 1026.5 2444.5V2518.5M1109 2513.5V2444.5H1128M1163 2444.5H1247M1282 2444.5H1582V2403L1620 2365H1722.5M1754 2365H1877M1911 2365H2052.5V2217.5M2052.5 2186V2066.5M2052.5 2033V1927L2128.5 1851L2225.5 1851.5M2260.5 1851.5H2282.72V1884H2404.5V1916.5C2401.04 1914.73 2424.93 1951.23 2510.5 1978M2534.5 1980.5C2557.18 1982.37 2569.99 1982.38 2593 1980.5M2617.5 1977C2664.71 1961.41 2687.97 1949.73 2721.5 1917.5V1882.5H2843.5V1848H2991.5V1883.5H3020M3054.5 1883.5H3098M3134 1883.5H3278M3275 1238.5H3001.5V1207.5H2676M2448.5 1208.5H2127.5V1244.5H1969.5V1259H1923V1208.5M1923 1154.5V1134.5H1977V735.999H1910.5M1878 735.999H1751.5M1721 735.999H1595M1562.5 735.999H1279.5M1246 735.999H1182.5V744.499H1163.5M1128 744.499L1108.5 744.999V736.499C1035.9 734.32 991.552 743.114 905.005 769.999M874.005 782.999C753.505 848.999 694.505 901.999 619.505 1028.5M600.005 1061.5C573.916 1121.96 563.878 1156.37 557.505 1220.5H530.505V1209.5H367.505M28.0049 1653.5C32.8012 1674.44 47.4824 1742.28 54.0049 1757.5" stroke="#888888" stroke-width="15"/>
<path d="M2208.5 1643.5V1595H2285M2917 1214V1280H2970.5V1263V1296.5" stroke="#888888" stroke-width="6"/>
<path d="M2988.5 1279H3039M3041.5 1279H3039M3039 1279V1285.5" stroke="#888888" stroke-width="6"/>
<path d="M3048.5 1413V1428.75M3048.5 1444.5V1428.75M3048.5 1428.75H3035.5L3022.5 1442.5V1475L3035.5 1488.5H3094V1515.5" stroke="#888888" stroke-width="6"/>
<path d="M1368 1577.5L1368.5 1523H1434V1577.5H1368Z" fill="#FBF4BC"/>
<path d="M1484 1579L1429 1578.17V1470H1484V1579Z" fill="#FBF4BC"/>
<path d="M1370 1523V1550.25M1370 1577.5V1550.25M1380.5 1523V1577.5M1391.5 1523V1577.5M1401 1523V1577.5M1411 1523V1577.5M1421.5 1523V1577.5M1429 1550.25H1370" stroke="#E957C4" stroke-width="4"/>
<path d="M1368 1522H1428.5M1368 1578.5H1485" stroke="#921C6E" stroke-width="2"/>
<path d="M1456.25 1523V1472M1429 1512.5H1483.5M1429 1503H1483.5M1429 1493H1483.5M1429 1482.5H1483.5M1429 1472H1456.25M1483.5 1472H1456.25" stroke="#E957C4" stroke-width="4"/>
<rect x="1477" y="1571" width="43" height="43" transform="rotate(180 1477 1571)" fill="#E957C4"/>
<g clip-path="url(#clip0_1099_6907)">
<path d="M1452.33 1567.61L1452.33 1561.07L1459.5 1561.07L1459.5 1554.54L1466.67 1554.54L1466.67 1548L1473.83 1548L1473.83 1543.1L1461.29 1543.1L1461.29 1549.64L1454.13 1549.64L1454.13 1556.17L1446.96 1556.17L1446.96 1562.71L1439.79 1562.71L1439.79 1567.61L1452.33 1567.61Z" fill="white"/>
<path d="M1452.67 1540.31L1443.25 1547L1440.43 1543.7L1449.85 1537.01L1448.68 1535.63L1456.23 1535.15L1453.85 1541.69L1452.68 1540.32L1452.67 1540.31Z" fill="white"/>
</g>
<path d="M1428 1523V1470M1484.5 1579.5V1470" stroke="#921C6E" stroke-width="2"/>
<path d="M1317 1577.5L1316.5 1523H1251V1577.5H1317Z" fill="#FBF4BC"/>
<path d="M1201 1579L1256 1578.17V1470H1201V1579Z" fill="#FBF4BC"/>
<path d="M1315 1523V1550.25M1315 1577.5V1550.25M1304.5 1523V1577.5M1293.5 1523V1577.5M1284 1523V1577.5M1274 1523V1577.5M1263.5 1523V1577.5M1256 1550.25H1315" stroke="#E957C4" stroke-width="4"/>
<path d="M1317 1522H1256.5M1317 1578.5H1200" stroke="#921C6E" stroke-width="2"/>
<path d="M1228.75 1523V1472M1256 1512.5H1201.5M1256 1503H1201.5M1256 1493H1201.5M1256 1482.5H1201.5M1256 1472H1228.75M1201.5 1472H1228.75" stroke="#E957C4" stroke-width="4"/>
<rect width="43" height="43" transform="matrix(1 4.37114e-08 4.37114e-08 -1 1208 1571)" fill="#E957C4"/>
<g clip-path="url(#clip1_1099_6907)">
<path d="M1232.67 1567.61L1232.67 1561.07L1225.51 1561.07L1225.51 1554.54L1218.34 1554.54L1218.34 1548L1211.17 1548L1211.17 1543.1L1223.71 1543.1L1223.71 1549.64L1230.88 1549.64L1230.88 1556.17L1238.05 1556.17L1238.05 1562.71L1245.21 1562.71L1245.21 1567.61L1232.67 1567.61Z" fill="white"/>
<path d="M1232.33 1540.31L1241.76 1547L1244.58 1543.7L1235.15 1537.01L1236.33 1535.63L1228.78 1535.15L1231.15 1541.69L1232.33 1540.32L1232.33 1540.31Z" fill="white"/>
</g>
<path d="M1257 1523V1470M1200.5 1579.5V1470" stroke="#921C6E" stroke-width="2"/>
<rect x="1180" y="1363" width="12" height="12" fill="#888888"/>
<rect x="449.004" y="1363" width="12" height="12" fill="#888888"/>
<rect x="391.004" y="1363" width="12" height="12" fill="#888888"/>
<rect x="134.004" y="1329" width="12" height="12" fill="#888888"/>
<rect x="1337" y="1363" width="12" height="12" fill="#888888"/>
<rect x="1337" y="1462" width="12" height="12" fill="#888888"/>
<rect x="1180" y="1462" width="12" height="12" fill="#888888"/>
<rect x="1180" y="1588" width="12" height="12" fill="#888888"/>
<rect x="1496" y="1589" width="12" height="12" fill="#888888"/>
<rect x="1496" y="1463" width="12" height="12" fill="#888888"/>
<rect x="1496" y="1363" width="12" height="12" fill="#888888"/>
<rect x="1652" y="1363" width="12" height="12" fill="#888888"/>
<rect x="1798" y="1363" width="12" height="12" fill="#888888"/>
<rect x="1967" y="1363" width="12" height="12" fill="#888888"/>
<rect x="2123" y="1363" width="12" height="12" fill="#888888"/>
<rect x="2282" y="1363" width="12" height="12" fill="#888888"/>
<rect x="2441" y="1593" width="12" height="12" fill="#888888"/>
<rect x="2441" y="1697" width="12" height="12" fill="#888888"/>
<rect x="2441" y="1864" width="12" height="12" fill="#888888"/>
<path d="M2560 1864H2572V1876H2560V1864Z" fill="#888888"/>
<rect x="2673" y="1864" width="12" height="12" fill="#888888"/>
<rect x="2673" y="1697" width="12" height="12" fill="#888888"/>
<rect x="2560" y="1696" width="12" height="12" fill="#888888"/>
<rect x="2673" y="1595" width="12" height="12" fill="#888888"/>
<rect x="2560" y="1592" width="12" height="12" fill="#888888"/>
<rect x="1652" y="1463" width="12" height="12" fill="#888888"/>
<rect x="1652" y="1284" width="12" height="12" fill="#888888"/>
<rect x="1180" y="1283" width="12" height="12" fill="#888888"/>
<line x1="114.004" y1="1450" x2="114.004" y2="1483" stroke="#888888" stroke-width="6"/>
<path d="M1028 2412.5L1028 2437.5" stroke="#888888" stroke-width="6"/>
<rect x="150.004" y="1269" width="75" height="57" fill="#FBF4BC"/>
<line x1="150.004" y1="1271" x2="225.004" y2="1271" stroke="#E957C4" stroke-width="4"/>
<line x1="150.004" y1="1279" x2="225.004" y2="1279" stroke="#E957C4" stroke-width="4"/>
<line x1="150.004" y1="1288" x2="225.004" y2="1288" stroke="#E957C4" stroke-width="4"/>
<line x1="150.004" y1="1297" x2="225.004" y2="1297" stroke="#E957C4" stroke-width="4"/>
<line x1="150.004" y1="1306" x2="225.004" y2="1306" stroke="#E957C4" stroke-width="4"/>
<line x1="150.004" y1="1316" x2="225.004" y2="1316" stroke="#E957C4" stroke-width="4"/>
<line x1="150.004" y1="1324" x2="225.004" y2="1324" stroke="#E957C4" stroke-width="4"/>
<line x1="188.004" y1="1270" x2="188.004" y2="1325" stroke="#E957C4" stroke-width="6"/>
<rect width="21.9517" height="21.9517" transform="matrix(1 4.37114e-08 4.37114e-08 -1 176.004 1309.95)" fill="#E957C4"/>
<g clip-path="url(#clip2_1099_6907)">
<path d="M188.598 1308.22L188.598 1304.88L184.939 1304.88L184.939 1301.55L181.281 1301.55L181.281 1298.21L177.622 1298.21L177.622 1295.71L184.025 1295.71L184.025 1299.05L187.683 1299.05L187.683 1302.38L191.342 1302.38L191.342 1305.72L195 1305.72L195 1308.22L188.598 1308.22Z" fill="white"/>
<path d="M188.425 1294.29L193.236 1297.7L194.675 1296.01L189.864 1292.6L190.463 1291.9L186.611 1291.65L187.822 1294.99L188.421 1294.29L188.425 1294.29Z" fill="white"/>
</g>
<rect x="1034" y="2453" width="66" height="60" fill="#FBF4BC"/>
<path d="M1034 2464H1100" stroke="#E957C4" stroke-width="4"/>
<path d="M1034 2474H1100" stroke="#E957C4" stroke-width="4"/>
<path d="M1034 2483H1100" stroke="#E957C4" stroke-width="4"/>
<path d="M1034 2492H1100" stroke="#E957C4" stroke-width="4"/>
<path d="M1034 2502H1100" stroke="#E957C4" stroke-width="4"/>
<path d="M1034 2511H1100" stroke="#E957C4" stroke-width="4"/>
<path d="M1034 2455H1100" stroke="#E957C4" stroke-width="4"/>
<line x1="1069" y1="2453" x2="1069" y2="2509" stroke="#E957C4" stroke-width="6"/>
<rect width="21.9517" height="21.9517" transform="matrix(1 4.37114e-08 4.37114e-08 -1 1056 2492.95)" fill="#E957C4"/>
<g clip-path="url(#clip3_1099_6907)">
<path d="M1068.6 2491.22L1068.6 2487.88L1064.94 2487.88L1064.94 2484.55L1061.28 2484.55L1061.28 2481.21L1057.62 2481.21L1057.62 2478.71L1064.02 2478.71L1064.02 2482.05L1067.68 2482.05L1067.68 2485.38L1071.34 2485.38L1071.34 2488.72L1075 2488.72L1075 2491.22L1068.6 2491.22Z" fill="white"/>
<path d="M1068.42 2477.29L1073.24 2480.7L1074.68 2479.01L1069.86 2475.6L1070.46 2474.9L1066.61 2474.65L1067.82 2477.99L1068.42 2477.29L1068.42 2477.29Z" fill="white"/>
</g>
<rect x="2229" y="1624" width="56" height="47" fill="#FBF4BC"/>
<path d="M2229 1635L2285 1635" stroke="#E957C4" stroke-width="4"/>
<path d="M2229 1646H2285" stroke="#E957C4" stroke-width="4"/>
<path d="M2229 1658H2285" stroke="#E957C4" stroke-width="4"/>
<path d="M2229 1670H2285" stroke="#E957C4" stroke-width="4"/>
<path d="M2229 1626H2285" stroke="#E957C4" stroke-width="4"/>
<path d="M2255 1624V1672" stroke="#E957C4" stroke-width="6"/>
<rect width="21.9517" height="21.9517" transform="matrix(1 4.37114e-08 4.37114e-08 -1 2245 1658.95)" fill="#E957C4"/>
<g clip-path="url(#clip4_1099_6907)">
<path d="M2257.6 1657.22L2257.6 1653.88L2253.94 1653.88L2253.94 1650.55L2250.28 1650.55L2250.28 1647.21L2246.62 1647.21L2246.62 1644.71L2253.02 1644.71L2253.02 1648.05L2256.68 1648.05L2256.68 1651.38L2260.34 1651.38L2260.34 1654.72L2264 1654.72L2264 1657.22L2257.6 1657.22Z" fill="white"/>
<path d="M2257.42 1643.29L2262.24 1646.7L2263.67 1645.01L2258.86 1641.6L2259.46 1640.9L2255.61 1640.65L2256.82 1643.99L2257.42 1643.29L2257.42 1643.29Z" fill="white"/>
</g>
<rect x="2229" y="1624" width="56" height="47" fill="#FBF4BC"/>
<path d="M2229 1635L2285 1635" stroke="#E957C4" stroke-width="4"/>
<path d="M2229 1646H2285" stroke="#E957C4" stroke-width="4"/>
<path d="M2229 1658H2285" stroke="#E957C4" stroke-width="4"/>
<path d="M2229 1670H2285" stroke="#E957C4" stroke-width="4"/>
<path d="M2229 1626H2285" stroke="#E957C4" stroke-width="4"/>
<path d="M2255 1624V1672" stroke="#E957C4" stroke-width="6"/>
<rect width="21.9517" height="21.9517" transform="matrix(1 4.37114e-08 4.37114e-08 -1 2245 1658.95)" fill="#E957C4"/>
<g clip-path="url(#clip5_1099_6907)">
<path d="M2257.6 1657.22L2257.6 1653.88L2253.94 1653.88L2253.94 1650.55L2250.28 1650.55L2250.28 1647.21L2246.62 1647.21L2246.62 1644.71L2253.02 1644.71L2253.02 1648.05L2256.68 1648.05L2256.68 1651.38L2260.34 1651.38L2260.34 1654.72L2264 1654.72L2264 1657.22L2257.6 1657.22Z" fill="white"/>
<path d="M2257.42 1643.29L2262.24 1646.7L2263.67 1645.01L2258.86 1641.6L2259.46 1640.9L2255.61 1640.65L2256.82 1643.99L2257.42 1643.29L2257.42 1643.29Z" fill="white"/>
</g>
<rect x="1110" y="825" width="34" height="54" fill="#FBF4BC"/>
<path d="M1110 837H1144" stroke="#E957C4" stroke-width="4"/>
<path d="M1110 847H1144" stroke="#E957C4" stroke-width="4"/>
<path d="M1110 857H1144" stroke="#E957C4" stroke-width="4"/>
<path d="M1110 867H1144" stroke="#E957C4" stroke-width="4"/>
<path d="M1110 877H1144" stroke="#E957C4" stroke-width="4"/>
<path d="M1110 827H1144" stroke="#E957C4" stroke-width="4"/>
<path d="M1127 825V878.5" stroke="#E957C4" stroke-width="6"/>
<rect width="21.9517" height="21.9517" transform="matrix(1 4.37114e-08 4.37114e-08 -1 1115 859.952)" fill="#E957C4"/>
<g clip-path="url(#clip6_1099_6907)">
<path d="M1127.6 858.22L1127.6 854.884L1123.94 854.884L1123.94 851.548L1120.28 851.548L1120.28 848.212L1116.62 848.212L1116.62 845.71L1123.02 845.71L1123.02 849.046L1126.68 849.046L1126.68 852.382L1130.34 852.382L1130.34 855.718L1134 855.718L1134 858.22L1127.6 858.22Z" fill="white"/>
<path d="M1127.42 844.285L1132.23 847.699L1133.67 846.013L1128.86 842.599L1129.46 841.897L1125.61 841.648L1126.82 844.991L1127.42 844.289L1127.42 844.285Z" fill="white"/>
</g>
<path d="M1028 1808L1030.5 2444.5C744 2444.5 506.5 2317.5 376.001 2190.5L346.001 2224C102.423 1967.81 29.352 1801.7 6 1467.5L1033.5 1467.5L1110 1543.5L1108.5 1808H1028Z" fill="#FFA2A2" stroke="#FFA1A1" stroke-width="6"/>
<path d="M463.005 1451V1468M463.005 1484V1468M463.005 1468H165.505C170.05 1565.86 176.98 1619.43 199.505 1712.5L183.505 1717.5L215.005 1708.5M197.005 1765.5L212.255 1759.5M227.505 1753.5L212.255 1759.5M212.255 1759.5C223.34 1791.14 230.704 1808.34 245.505 1838.02L230.505 1845L260.505 1831M269.005 1883L255.005 1892M269.005 1883L283.505 1874.5M269.005 1883C284.293 1910.11 294.333 1925.71 312.005 1951.33L298.505 1960.5L325.005 1942.5M330.005 2002L342.255 1991.5M354.505 1981L342.255 1991.5M342.255 1991.5C364.578 2019.8 377.513 2034.88 401.255 2060.25L389.005 2071L413.505 2049.5M423.505 2107L435.005 2095M446.505 2083.5L435.005 2095M435.005 2095C460.531 2119.66 475.264 2132.77 502.505 2154.5L493.005 2166.5L513.505 2143M534.005 2196.5L542.755 2183.5M551.505 2170.5L542.755 2183.5M542.755 2183.5L612.005 2226.5L605.505 2239L620.005 2213.5M651.005 2263.5L657.755 2248.75M664.505 2234L657.755 2248.75M657.755 2248.75L737.005 2280.5L743.005 2267L731.505 2296M786.005 2280.5L782.505 2296M778.005 2312L782.505 2296M782.505 2296C875.743 2320.84 929.852 2329.29 1028 2333.5V2267H1012H1044.5M1012 2214.5H1028M1044.5 2214.5H1028M1028 2214.5V2184H1012H1043.5M1012 2137H1028M1043.5 2137H1028M1028 2137V2032H1012H1043M1012 1972.5H1028M1043.5 1972.5H1028M1028 1972.5V1808H1110L1109.75 1685.5M1109.75 1685.5H1093.5M1109.75 1685.5H1126M1093.5 1660.5H1109.75M1126 1660.5H1109.75M1109.75 1660.5V1543.5L1033.5 1467.5L523.005 1468V1451V1484" stroke="#888888" stroke-width="6"/>
<path d="M1028 1809H1109.5L1110 1544.5L1033.5 1468H594.505V1533H662.505L699.005 1569.5H786.005L924.505 1709L925.505 1797.5L960.505 1831.5V1859H1028V1809Z" fill="#F271A0" stroke="#F271A0" stroke-width="6"/>
<path d="M1093.5 1685.5H1109.5M1109.5 1685.5H1126M1109.5 1685.5V1809H1028V1862M591.505 1468H1033.5L1110 1544.5V1661M1110 1661H1093.5M1110 1661H1126M591.505 1533H662.505L699.005 1569.5H786.005L924.505 1709L925.505 1797.5L960.505 1831.5V1862" stroke="#B00242" stroke-width="6"/>
<rect x="953.004" y="1552" width="69.375" height="69" rx="3" fill="#F40058"/>
<path d="M989.079 1552H1019.38C1021.04 1552 1022.38 1553.34 1022.38 1555V1618C1022.38 1619.66 1021.04 1621 1019.38 1621H989.079V1552Z" fill="black" fill-opacity="0.2"/>
<path d="M988.847 1557.75C991.224 1557.75 993.503 1558.66 995.184 1560.28C996.864 1561.89 997.808 1564.09 997.808 1566.38V1583.62C997.808 1585.91 996.864 1588.11 995.184 1589.72C993.503 1591.34 991.224 1592.25 988.847 1592.25C986.471 1592.25 984.191 1591.34 982.511 1589.72C980.83 1588.11 979.886 1585.91 979.886 1583.62V1566.38C979.886 1564.09 980.83 1561.89 982.511 1560.28C984.191 1558.66 986.471 1557.75 988.847 1557.75ZM1009.76 1583.62C1009.76 1593.77 1001.96 1602.14 991.834 1603.55V1612.38H985.86V1603.55C975.734 1602.14 967.938 1593.77 967.938 1583.62H973.912C973.912 1587.44 975.486 1591.09 978.287 1593.79C981.088 1596.49 984.886 1598 988.847 1598C992.808 1598 996.607 1596.49 999.408 1593.79C1002.21 1591.09 1003.78 1587.44 1003.78 1583.62H1009.76Z" fill="white"/>
<rect x="585.005" y="1504" width="52" height="30" fill="#FBF4BC"/>
<line x1="586.505" y1="1504" x2="586.505" y2="1534" stroke="#E957C4" stroke-width="3"/>
<line x1="593.505" y1="1504" x2="593.505" y2="1534" stroke="#E957C4" stroke-width="3"/>
<line x1="600.505" y1="1504" x2="600.505" y2="1534" stroke="#E957C4" stroke-width="3"/>
<line x1="607.505" y1="1504" x2="607.505" y2="1534" stroke="#E957C4" stroke-width="3"/>
<line x1="614.505" y1="1504" x2="614.505" y2="1534" stroke="#E957C4" stroke-width="3"/>
<line x1="621.505" y1="1504" x2="621.505" y2="1534" stroke="#E957C4" stroke-width="3"/>
<line x1="628.505" y1="1504" x2="628.505" y2="1534" stroke="#E957C4" stroke-width="3"/>
<line x1="635.505" y1="1504" x2="635.505" y2="1534" stroke="#E957C4" stroke-width="3"/>
<path d="M585.005 1533H637.005" stroke="#850F67" stroke-width="2"/>
<path d="M585.005 1505H637.005" stroke="#850F67" stroke-width="2"/>
<rect x="618.957" y="1529.95" width="21.9517" height="21.9517" transform="rotate(180 618.957 1529.95)" fill="#E957C4"/>
<g clip-path="url(#clip7_1099_6907)">
<path d="M606.363 1528.22L606.363 1524.88L610.022 1524.88L610.022 1521.55L613.68 1521.55L613.68 1518.21L617.339 1518.21L617.339 1515.71L610.936 1515.71L610.936 1519.05L607.278 1519.05L607.278 1522.38L603.619 1522.38L603.619 1525.72L599.96 1525.72L599.96 1528.22L606.363 1528.22Z" fill="white"/>
<path d="M606.536 1514.28L601.725 1517.7L600.286 1516.01L605.097 1512.6L604.498 1511.9L608.35 1511.65L607.138 1514.99L606.54 1514.29L606.536 1514.28Z" fill="white"/>
</g>
<rect x="544.005" y="1469" width="87" height="30" fill="#FBF4BC"/>
<line x1="545.505" y1="1469" x2="545.505" y2="1499" stroke="#E957C4" stroke-width="3" stroke-dasharray="3 3"/>
<line x1="552.505" y1="1469" x2="552.505" y2="1499" stroke="#E957C4" stroke-width="3"/>
<line x1="559.505" y1="1469" x2="559.505" y2="1499" stroke="#E957C4" stroke-width="3"/>
<line x1="566.505" y1="1469" x2="566.505" y2="1499" stroke="#E957C4" stroke-width="3"/>
<line x1="573.505" y1="1469" x2="573.505" y2="1499" stroke="#E957C4" stroke-width="3"/>
<line x1="580.505" y1="1469" x2="580.505" y2="1499" stroke="#E957C4" stroke-width="3"/>
<line x1="587.505" y1="1469" x2="587.505" y2="1499" stroke="#E957C4" stroke-width="3"/>
<line x1="594.505" y1="1469" x2="594.505" y2="1499" stroke="#E957C4" stroke-width="3"/>
<line x1="601.505" y1="1469" x2="601.505" y2="1499" stroke="#E957C4" stroke-width="3"/>
<line x1="608.505" y1="1469" x2="608.505" y2="1499" stroke="#E957C4" stroke-width="3"/>
<line x1="615.505" y1="1469" x2="615.505" y2="1499" stroke="#E957C4" stroke-width="3"/>
<line x1="622.505" y1="1469" x2="622.505" y2="1499" stroke="#E957C4" stroke-width="3"/>
<line x1="629.505" y1="1469" x2="629.505" y2="1499" stroke="#E957C4" stroke-width="3"/>
<line x1="544.005" y1="1470" x2="631.005" y2="1470" stroke="#850F67" stroke-width="2"/>
<line x1="544.005" y1="1498" x2="631.005" y2="1498" stroke="#850F67" stroke-width="2"/>
<rect width="21.9517" height="21.9517" transform="matrix(1 4.37114e-08 4.37114e-08 -1 576.005 1494.95)" fill="#E957C4"/>
<g clip-path="url(#clip8_1099_6907)">
<path d="M588.599 1493.22L588.599 1489.88L584.94 1489.88L584.94 1486.55L581.282 1486.55L581.282 1483.21L577.623 1483.21L577.623 1480.71L584.026 1480.71L584.026 1484.05L587.684 1484.05L587.684 1487.38L591.343 1487.38L591.343 1490.72L595.001 1490.72L595.001 1493.22L588.599 1493.22Z" fill="white"/>
<path d="M588.426 1479.28L593.237 1482.7L594.676 1481.01L589.865 1477.6L590.464 1476.9L586.612 1476.65L587.823 1479.99L588.422 1479.29L588.426 1479.28Z" fill="white"/>
</g>
<rect x="993.005" y="1949" width="87" height="30" transform="rotate(-90 993.005 1949)" fill="#FBF4BC"/>
<line x1="993.005" y1="1947.5" x2="1023" y2="1947.5" stroke="#E957C4" stroke-width="3"/>
<line x1="993.005" y1="1940.5" x2="1023" y2="1940.5" stroke="#E957C4" stroke-width="3"/>
<line x1="993.005" y1="1933.5" x2="1023" y2="1933.5" stroke="#E957C4" stroke-width="3"/>
<line x1="993.005" y1="1926.5" x2="1023" y2="1926.5" stroke="#E957C4" stroke-width="3"/>
<line x1="993.005" y1="1919.5" x2="1023" y2="1919.5" stroke="#E957C4" stroke-width="3"/>
<line x1="993.005" y1="1912.5" x2="1023" y2="1912.5" stroke="#E957C4" stroke-width="3"/>
<line x1="993.005" y1="1905.5" x2="1023" y2="1905.5" stroke="#E957C4" stroke-width="3"/>
<line x1="993.005" y1="1898.5" x2="1023" y2="1898.5" stroke="#E957C4" stroke-width="3"/>
<line x1="993.005" y1="1891.5" x2="1023" y2="1891.5" stroke="#E957C4" stroke-width="3"/>
<line x1="993.005" y1="1884.5" x2="1023" y2="1884.5" stroke="#E957C4" stroke-width="3"/>
<line x1="993.005" y1="1877.5" x2="1023" y2="1877.5" stroke="#E957C4" stroke-width="3"/>
<line x1="993.005" y1="1870.5" x2="1023" y2="1870.5" stroke="#E957C4" stroke-width="3"/>
<line x1="993.005" y1="1863.5" x2="1023" y2="1863.5" stroke="#E957C4" stroke-width="3"/>
<line x1="994.005" y1="1949" x2="994.005" y2="1862" stroke="#850F67" stroke-width="2"/>
<line x1="1022" y1="1949" x2="1022" y2="1862" stroke="#850F67" stroke-width="2"/>
<rect x="997.005" y="1917" width="21.9517" height="21.9517" transform="rotate(-90 997.005 1917)" fill="#E957C4"/>
<g clip-path="url(#clip9_1099_6907)">
<path d="M998.737 1904.41L1002.07 1904.41L1002.07 1908.06L1005.41 1908.06L1005.41 1911.72L1008.74 1911.72L1008.74 1915.38L1011.25 1915.38L1011.25 1908.98L1007.91 1908.98L1007.91 1905.32L1004.57 1905.32L1004.57 1901.66L1001.24 1901.66L1001.24 1898L998.737 1898L998.737 1904.41Z" fill="white"/>
<path d="M1012.67 1904.58L1009.26 1899.77L1010.94 1898.33L1014.36 1903.14L1015.06 1902.54L1015.31 1906.39L1011.97 1905.18L1012.67 1904.58L1012.67 1904.58Z" fill="white"/>
</g>
<rect x="960.005" y="1909" width="52" height="30" transform="rotate(-90 960.005 1909)" fill="#FBF4BC"/>
<line x1="960.005" y1="1907.5" x2="990.005" y2="1907.5" stroke="#E957C4" stroke-width="3"/>
<line x1="960.005" y1="1900.5" x2="990.005" y2="1900.5" stroke="#E957C4" stroke-width="3"/>
<line x1="960.005" y1="1893.5" x2="990.005" y2="1893.5" stroke="#E957C4" stroke-width="3"/>
<line x1="960.005" y1="1886.5" x2="990.005" y2="1886.5" stroke="#E957C4" stroke-width="3"/>
<line x1="960.005" y1="1879.5" x2="990.005" y2="1879.5" stroke="#E957C4" stroke-width="3"/>
<line x1="960.005" y1="1872.5" x2="990.005" y2="1872.5" stroke="#E957C4" stroke-width="3"/>
<line x1="960.005" y1="1865.5" x2="990.005" y2="1865.5" stroke="#E957C4" stroke-width="3"/>
<line x1="960.005" y1="1858.5" x2="990.005" y2="1858.5" stroke="#E957C4" stroke-width="3"/>
<path d="M989.005 1909V1857" stroke="#850F67" stroke-width="2"/>
<path d="M961.005 1909V1857" stroke="#850F67" stroke-width="2"/>
<rect width="21.9517" height="21.9517" transform="matrix(-4.37114e-08 1 1 4.37114e-08 964.005 1875.05)" fill="#E957C4"/>
<g clip-path="url(#clip10_1099_6907)">
<path d="M965.737 1887.64L969.073 1887.64L969.073 1883.98L972.409 1883.98L972.409 1880.32L975.745 1880.32L975.745 1876.66L978.247 1876.66L978.247 1883.07L974.911 1883.07L974.911 1886.73L971.575 1886.73L971.575 1890.38L968.239 1890.38L968.239 1894.04L965.737 1894.04L965.737 1887.64Z" fill="white"/>
<path d="M979.672 1887.47L976.258 1892.28L977.944 1893.72L981.358 1888.91L982.06 1889.51L982.309 1885.65L978.966 1886.87L979.668 1887.46L979.672 1887.47Z" fill="white"/>
</g>
<rect x="150.003" y="1242" width="75" height="127" fill="#FBF4BC"/>
<line x1="150.003" y1="1325" x2="225.003" y2="1325" stroke="#E957C4" stroke-width="4"/>
<line x1="150.003" y1="1334" x2="225.003" y2="1334" stroke="#E957C4" stroke-width="4"/>
<line x1="150.003" y1="1353" x2="225.003" y2="1353" stroke="#E957C4" stroke-width="4"/>
<line x1="150.003" y1="1344" x2="225.003" y2="1344" stroke="#E957C4" stroke-width="4"/>
<line x1="150.003" y1="1362" x2="225.003" y2="1362" stroke="#E957C4" stroke-width="4"/>
<line x1="150.003" y1="1271" x2="225.003" y2="1271" stroke="#E957C4" stroke-width="4"/>
<line x1="150.003" y1="1280" x2="225.003" y2="1280" stroke="#E957C4" stroke-width="4"/>
<line x1="150.003" y1="1244" x2="225.003" y2="1244" stroke="#E957C4" stroke-width="4"/>
<line x1="150.003" y1="1289" x2="225.003" y2="1289" stroke="#E957C4" stroke-width="4"/>
<line x1="150.003" y1="1253" x2="225.003" y2="1253" stroke="#E957C4" stroke-width="4"/>
<line x1="150.003" y1="1298" x2="225.003" y2="1298" stroke="#E957C4" stroke-width="4"/>
<line x1="150.003" y1="1262" x2="225.003" y2="1262" stroke="#E957C4" stroke-width="4"/>
<line x1="150.003" y1="1307" x2="225.003" y2="1307" stroke="#E957C4" stroke-width="4"/>
<line x1="150.003" y1="1316" x2="225.003" y2="1316" stroke="#E957C4" stroke-width="4"/>
<path d="M188.003 1242.5L187.503 1369" stroke="#E957C4" stroke-width="6"/>
<rect width="21.9517" height="21.9517" transform="matrix(1 4.37114e-08 4.37114e-08 -1 176.003 1309.95)" fill="#E957C4"/>
<g clip-path="url(#clip11_1099_6907)">
<path d="M188.597 1308.22L188.597 1304.88L184.938 1304.88L184.938 1301.55L181.28 1301.55L181.28 1298.21L177.621 1298.21L177.621 1295.71L184.024 1295.71L184.024 1299.05L187.682 1299.05L187.682 1302.38L191.341 1302.38L191.341 1305.72L194.999 1305.72L194.999 1308.22L188.597 1308.22Z" fill="white"/>
<path d="M188.424 1294.29L193.235 1297.7L194.674 1296.01L189.863 1292.6L190.462 1291.9L186.61 1291.65L187.822 1294.99L188.42 1294.29L188.424 1294.29Z" fill="white"/>
</g>
<defs>
<clipPath id="clip0_1099_6907">
<rect width="43" height="39.2059" fill="white" transform="translate(1477 1567.98) rotate(180)"/>
</clipPath>
<clipPath id="clip1_1099_6907">
<rect width="43" height="39.2059" fill="white" transform="matrix(1 4.37114e-08 4.37114e-08 -1 1208 1567.98)"/>
</clipPath>
<clipPath id="clip2_1099_6907">
<rect width="21.9517" height="20.0148" fill="white" transform="matrix(1 4.37114e-08 4.37114e-08 -1 176.004 1308.41)"/>
</clipPath>
<clipPath id="clip3_1099_6907">
<rect width="21.9517" height="20.0148" fill="white" transform="matrix(1 4.37114e-08 4.37114e-08 -1 1056 2491.41)"/>
</clipPath>
<clipPath id="clip4_1099_6907">
<rect width="21.9517" height="20.0148" fill="white" transform="matrix(1 4.37114e-08 4.37114e-08 -1 2245 1657.41)"/>
</clipPath>
<clipPath id="clip5_1099_6907">
<rect width="21.9517" height="20.0148" fill="white" transform="matrix(1 4.37114e-08 4.37114e-08 -1 2245 1657.41)"/>
</clipPath>
<clipPath id="clip6_1099_6907">
<rect width="21.9517" height="20.0148" fill="white" transform="matrix(1 4.37114e-08 4.37114e-08 -1 1115 858.412)"/>
</clipPath>
<clipPath id="clip7_1099_6907">
<rect width="21.9517" height="20.0148" fill="white" transform="translate(618.957 1528.41) rotate(180)"/>
</clipPath>
<clipPath id="clip8_1099_6907">
<rect width="21.9517" height="20.0148" fill="white" transform="matrix(1 4.37114e-08 4.37114e-08 -1 576.005 1493.41)"/>
</clipPath>
<clipPath id="clip9_1099_6907">
<rect width="21.9517" height="20.0148" fill="white" transform="translate(998.545 1917) rotate(-90)"/>
</clipPath>
<clipPath id="clip10_1099_6907">
<rect width="21.9517" height="20.0148" fill="white" transform="matrix(-4.37114e-08 1 1 4.37114e-08 965.545 1875.05)"/>
</clipPath>
<clipPath id="clip11_1099_6907">
<rect width="21.9517" height="20.0148" fill="white" transform="matrix(1 4.37114e-08 4.37114e-08 -1 176.003 1308.41)"/>
</clipPath>
</defs>
</svg>
